# xmcd CD database file
#
# Track frame offsets:
#	150
#	22724
#	46633
#	71743
#	88376
#	114190
#	141034
#	154643
#	174326
#	193557
#	222859
#	243018
#	264163
#	288122
#
# Disc length: 4118 seconds
#
# Revision: 3
# Processed by: cddbd v1.4PL0 Copyright (c) Steve Scherf et al.
# Submitted via: CDex 1.40Beta5
#
DISCID=ab10140e
DTITLE=Various Artist - That Lonely Feeling Called the Blues
DYEAR=2000
DGENRE=Blues
TTITLE0=Jonnie Bassett - Walk My Blues Away
TTITLE1=Irene Reid - I'll Take You Back
TTITLE2=J. J. Malone - Sittin' Here Thinkin'
TTITLE3=Willie Willis - What's on Your Mind
TTITLE4=Fillmore Slim - Down on the Farm
TTITLE5=Etta Jones - Please Mr. Johnson
TTITLE6=Arthur Williams - Mojo Ain't Working
TTITLE7=J. J. Malone - Long Way From San Antone
TTITLE8=Robert "Bilbo" Walker - Mystery Train
TTITLE9=Big Al Dupree - Positive Thinking
TTITLE10=Johnie Bassett - Sweet Potato Pie
TTITLE11=Tommy Bankhead - The Bright Lights
TTITLE12=Charles Earland - Honky Tonk
TTITLE13=Irene Reid - I'm Walking
EXTD=YEAR: 2000 ID3G:   0
EXTT0=
EXTT1=
EXTT2=
EXTT3=
EXTT4=
EXTT5=
EXTT6=
EXTT7=
EXTT8=
EXTT9=
EXTT10=
EXTT11=
EXTT12=
EXTT13=
PLAYORDER=
